<?xml version="1.0" standalone="no"?><!DOCTYPE svg PUBLIC "-//W3C//DTD SVG 1.1//EN" "http://www.w3.org/Graphics/SVG/1.1/DTD/svg11.dtd"><svg t="1606198041653" class="icon" viewBox="0 0 1024 1024" version="1.1" xmlns="http://www.w3.org/2000/svg" p-id="3117" width="220" height="220" xmlns:xlink="http://www.w3.org/1999/xlink"><defs><style type="text/css"></style></defs><path d="M384 128c-141.76 0-256 114.24-256 256a256 256 0 0 0 230.016 255.008L259.968 816 233.984 864H918.016l-26.016-48-252.992-455.008C624.48 230.592 516.416 128 384 128z m0 64c72.224 0 133.984 40 167.008 100l-3.008 6.016-154.016 276.992c-3.2 0.384-4.928 0.992-9.984 0.992-107.84 0-192-84.16-192-192s84.16-192 192-192z m-32 64v146.016L296.992 456.96l46.016 46.016 64-64 8.992-10.016V256h-64z m224 123.008L808.992 800H343.04L576 379.008zM544 512v160h64v-160h-64z m0 192v64h64v-64h-64z" p-id="3118" fill="#d81e06"></path></svg>