<?xml version="1.0" standalone="no"?><!DOCTYPE svg PUBLIC "-//W3C//DTD SVG 1.1//EN" "http://www.w3.org/Graphics/SVG/1.1/DTD/svg11.dtd"><svg t="1606196839282" class="icon" viewBox="0 0 1024 1024" version="1.1" xmlns="http://www.w3.org/2000/svg" p-id="1468" xmlns:xlink="http://www.w3.org/1999/xlink" width="200" height="200"><defs><style type="text/css"></style></defs><path d="M0 82.407619v859.184762A82.407619 82.407619 0 0 0 82.407619 1024h859.184762A82.407619 82.407619 0 0 0 1024 941.592381V560.761905a40.96 40.96 0 1 0-82.407619 0v380.830476H82.407619V82.407619h536.380952a40.96 40.96 0 0 0 0-82.407619h-536.380952A82.407619 82.407619 0 0 0 0 82.407619z" fill="#1afa29" p-id="1469"></path><path d="M436.419048 724.114286a36.571429 36.571429 0 0 1-24.868572-9.752381l-184.807619-170.666667a36.571429 36.571429 0 1 1 48.761905-53.638095l158.47619 146.285714L931.352381 128.24381a36.571429 36.571429 0 1 1 52.175238 48.761904l-521.264762 536.380953a36.571429 36.571429 0 0 1-25.843809 10.727619z" fill="#1afa29" p-id="1470"></path></svg>