<svg t="1571731770440" class="icon" viewBox="0 0 1026 1024" version="1.1" xmlns="http://www.w3.org/2000/svg" p-id="1859" width="200" height="200"><path d="M669.696 50.176H27.2384C12.0832 50.176 2.048 41.1648 2.048 27.4432v-4.5056C2.048 9.216 12.0832 0 27.2384 0H669.696c15.1552 0 25.1904 9.216 25.1904 22.7328v4.5056c-0.2048 13.9264-15.1552 22.9376-25.1904 22.9376zM443.8016 273.8176c0-13.7216-10.0352-22.7328-25.1904-22.7328H27.2384C12.0832 250.88 2.048 260.096 2.048 273.8176v4.5056c0 13.7216 10.0352 22.7328 25.1904 22.7328h391.5776c14.9504-4.5056 24.9856-13.5168 24.9856-27.2384zM307.2 524.6976c0-13.7216-10.0352-22.7328-25.1904-22.7328H27.2384c-15.1552 0-25.1904 9.216-25.1904 22.7328v4.5056c0 13.7216 10.0352 22.7328 25.1904 22.7328h254.976c14.9504-4.3008 24.9856-13.5168 24.9856-27.2384z m71.2704 251.0848c0-13.7216-10.0352-22.7328-25.1904-22.7328H27.2384c-15.1552 0-25.1904 9.216-25.1904 22.7328v4.5056c0 13.7216 10.0352 22.7328 25.1904 22.7328h326.2464c14.9504-4.5056 24.9856-13.5168 24.9856-27.2384z m562.176-404.2752L544.1536 612.352c-15.1552 5.12-15.1552 25.1904 0 35.2256l70.2464 40.1408c10.0352 5.12 15.1552 20.0704 10.0352 35.2256-5.12 15.1552-20.0704 15.1552-35.2256 10.0352l-135.5776-80.2816c-15.1552-10.0352-15.1552-35.2256 0-45.2608l532.0704-301.2608c15.1552-10.0352 35.2256 0 35.2256 20.0704l5.12 612.352c0 20.0704-20.0704 30.1056-35.2256 20.0704l-135.5776-80.2816c-10.0352-5.12-15.1552-20.0704-10.0352-35.2256 5.12-10.0352 20.0704-15.1552 35.2256-10.0352l70.2464 40.1408c15.1552 5.12 30.1056 0 30.1056-15.1552l10.0352-466.7392-240.8448 366.592c-2.4576 3.4816-4.9152 5.9392-5.12 10.0352v210.7392c0 15.1552-10.0352 25.1904-25.1904 25.1904s-25.1904-10.0352-25.1904-25.1904V752.8448c0-5.12 1.6384-9.216 5.12-15.1552l241.0496-366.1824z" p-id="1860"></path></svg>