<?xml version="1.0" standalone="no"?><!DOCTYPE svg PUBLIC "-//W3C//DTD SVG 1.1//EN" "http://www.w3.org/Graphics/SVG/1.1/DTD/svg11.dtd"><svg t="1567068155484" class="icon" viewBox="0 0 1024 1024" version="1.1" xmlns="http://www.w3.org/2000/svg" p-id="1722" xmlns:xlink="http://www.w3.org/1999/xlink" width="200" height="200"><defs><style type="text/css"></style></defs><path d="M768 896 256 896c-23.466667 0-42.666667-19.2-42.666667-42.666667L213.333333 426.666667c0-23.466667 19.2-42.666667 42.666667-42.666667l64 0 0-64c0-106.666667 85.333333-192 192-192s192 85.333333 192 192l0 64 64 0c23.466667 0 42.666667 19.2 42.666667 42.666667l0 426.666667C810.666667 876.8 791.466667 896 768 896zM661.333333 320c0-83.2-66.133333-149.333333-149.333333-149.333333s-149.333333 66.133333-149.333333 149.333333l0 64 298.666667 0L661.333333 320zM768 426.666667 256 426.666667l0 426.666667 512 0L768 426.666667zM512 554.666667c23.466667 0 42.666667 19.2 42.666667 42.666667 0 14.933333-8.533333 29.866667-21.333333 36.266667L533.333333 682.666667c0 12.8-8.533333 21.333333-21.333333 21.333333s-21.333333-8.533333-21.333333-21.333333l0-49.066667c-12.8-6.4-21.333333-21.333333-21.333333-36.266667C469.333333 573.866667 488.533333 554.666667 512 554.666667z" p-id="1723" fill="#d81e06"></path></svg>