<?xml version="1.0" standalone="no"?><!DOCTYPE svg PUBLIC "-//W3C//DTD SVG 1.1//EN" "http://www.w3.org/Graphics/SVG/1.1/DTD/svg11.dtd"><svg t="1608372973567" class="icon" viewBox="0 0 1024 1024" version="1.1" xmlns="http://www.w3.org/2000/svg" p-id="3538" width="280" height="280" xmlns:xlink="http://www.w3.org/1999/xlink"><defs><style type="text/css"></style></defs><path d="M289.54081 400.4c-9.4-11.9-31.5-44.9-33.4-94.6-2.2-58.3 25.1-97.9 33.5-108.6 14.5-18.6 11.3-45.4-7.3-59.9-18.5-14.6-45.3-11.2-59.9 7.2-16.6 21.2-54.8 79.6-51.6 164.5 2.9 74.8 37.1 125.8 51.7 144.3 8.4 10.7 20.9 16.2 33.5 16.2 9.2 0 18.6-3 26.4-9.2 18.6-14.6 21.7-41.4 7.1-59.9z" p-id="3539"></path><path d="M85.64081 306.7c-4.9-117.9 56.1-198.9 74.9-220.9 15.3-17.9 13.2-44.8-4.8-60.2-17.9-15.2-44.8-13.2-60.2 4.8C71.74081 58.4-5.75919 161.2 0.34081 310.2c5.3 127.3 68.4 213.8 95.3 245C104.04081 565 116.04081 570 127.94081 570c9.9 0 19.8-3.4 27.8-10.3 17.9-15.4 19.9-42.3 4.5-60.2-20.9-24.4-70.4-92.2-74.6-192.8zM741.84081 137.2c-18.6 14.5-21.9 41.3-7.5 59.9 8.4 10.8 35.8 50.6 33.5 108.7-1.9 49.5-24 82.8-33.4 94.7-14.6 18.5-11.3 45.3 7.2 59.9 7.8 6.2 17.1 9.1 26.3 9.1 12.7 0 25.2-5.6 33.6-16.3 18.1-23 48.8-72.3 51.6-144.2 3.2-84.6-34.9-143.1-51.5-164.4-14.4-18.6-41.3-21.9-59.8-7.4z" p-id="3540"></path><path d="M928.54081 30.4c-15.3-18-42.2-20.1-60.2-4.8s-20.1 42.2-4.8 60.2c18.8 22 79.8 103.2 74.9 220.9-4.2 100.5-53.7 168.5-74.8 193-15.3 17.9-13.3 44.8 4.6 60.2 8 6.9 17.9 10.3 27.8 10.3 12 0 24-5 32.4-14.9 26.9-31.3 90-117.9 95.2-245 6-144.7-64.5-243.9-95.1-279.9zM735.74081 923.2h-181V478.7c73.4-19.1 128-85.3 128-164.6 0-94.1-76.5-170.7-170.7-170.7S341.34081 220 341.34081 314.1c0 79.3 54.6 145.5 128 164.6v444.5H309.04081c-23.6 0-42.7 19.1-42.7 42.7s19.1 42.7 42.7 42.7h426.7c23.6 0 42.7-19.1 42.7-42.7s-19.1-42.7-42.7-42.7z m-309-609.1c0-47 38.3-85.3 85.3-85.3s85.3 38.3 85.3 85.3-38.3 85.3-85.3 85.3-85.3-38.2-85.3-85.3z" p-id="3541"></path></svg>