<?xml version="1.0" standalone="no"?><!DOCTYPE svg PUBLIC "-//W3C//DTD SVG 1.1//EN" "http://www.w3.org/Graphics/SVG/1.1/DTD/svg11.dtd"><svg t="1606197352707" class="icon" viewBox="0 0 1024 1024" version="1.1" xmlns="http://www.w3.org/2000/svg" p-id="2769" xmlns:xlink="http://www.w3.org/1999/xlink" width="200" height="200"><defs><style type="text/css"></style></defs><path d="M152.439878 958.795952c-17.308201 0-31.387871-15.408945-31.387871-34.342156 0-18.927071 14.07967-34.3309 31.387871-34.3309l58.011228 0 0-80.948637c0-58.145281 14.057157-115.362424 40.652885-165.476799 26.1598-49.310056 63.780629-90.593298 108.778472-119.400391l3.63069-2.322905-3.63069-2.322905c-44.997843-28.813233-82.618673-70.102614-108.778472-119.40653-26.595728-50.113351-40.652885-107.326401-40.652885-165.449169l0-100.93176-57.536414 0c-17.308201 0-31.387871-15.402805-31.387871-34.342156 0-18.927071 14.07967-34.319643 31.387871-34.319643l718.649524 0c17.302061 0 31.381731 15.397688 31.381731 34.3309 0 18.927071-14.07967 34.3309-31.381731 34.3309l-54.453193 0 0 100.93176c0 58.122769-14.052041 115.340935-40.652885 165.460426-26.1598 49.303916-63.780629 90.599438-108.783589 119.411647l-3.624551 2.322905 3.624551 2.322905c45.003983 28.79072 82.623789 70.073962 108.789729 119.378901 26.595728 50.113351 40.647769 107.337657 40.647769 165.481915l0 80.948637 53.973262 0c17.313318 0 31.392988 15.403828 31.392988 34.336016s-14.07967 34.336016-31.392988 34.336016L152.439878 958.794929zM466.175325 549.485753c-0.36839 0.295735-0.74292 0.591471-1.11745 0.865717l-0.150426 0.11154c-3.367701 2.485611-7.103792 4.217045-11.075243 5.126764-106.393145 29.823236-180.617637 134.083811-180.617637 253.584486l0 80.948637 481.132992 0 0-80.948637c0-120.171963-74.732052-224.559429-181.728948-253.869988-0.508583-0.134053-0.99977-0.279363-1.479701-0.441045l-0.491187-0.172939c-0.251733-0.089028-0.547469-0.190335-0.831948-0.301875-0.25685-0.095167-0.48607-0.190335-0.720408-0.290619l-0.385786-0.161682c-3.970428-1.715061-7.444553-4.172019-10.416234-7.349385-0.045025-0.045025-0.11768-0.128937-0.200568-0.211824-0.161682-0.172939-0.363274-0.402159-0.563842-0.636496l-0.418532-0.479931c-0.156566-0.179079-0.301875-0.357134-0.447185-0.536212-0.195451-0.251733-0.390903-0.497327-0.581238-0.748037l-0.290619-0.379647c-0.251733-0.345877-0.508583-0.704035-0.765433-1.072425l-0.11768-0.206708-0.072655-0.077771c-1.127683-1.686409-2.116197-3.490497-2.937912-5.361101l-0.056282-0.128937c-0.195451-0.458441-0.385786-0.921999-0.563842-1.390673l-0.077771-0.184195c-0.150426-0.418532-0.318248-0.860601-0.463558-1.312902l-0.061398-0.179079c-0.172939-0.508583-0.306992-0.949628-0.435928-1.401929l-0.072655-0.245593c-0.13917-0.497327-0.290619-1.066285-0.435928-1.653663-0.061398-0.273223-0.11154-0.558725-0.167822-0.849344l-0.150426-0.74292c-0.066515-0.345877-0.134053-0.787946-0.200568-1.234107l-0.038886-0.240477c-0.083911-0.569982-0.13917-1.027399-0.184195-1.490957l-0.005117-0.061398-0.033769-0.268106c-1.642406-16.827247 8.494465-32.66598 23.585161-36.776601 107.052155-29.370935 181.812859-133.788076 181.812859-253.92013l0-100.93176L273.220708 133.8638l0 100.93176c0 120.149451 74.749448 224.543056 181.77909 253.875105 3.960195 1.094938 7.628748 2.971681 10.884908 5.585205l0.156566 0.122797c0.161682 0.128937 0.329505 0.268106 0.491187 0.407276l0.815575 0.704035 0.290619 0.268106c5.060249 4.663206 8.573259 10.812253 10.19213 17.815761 1.736551 7.517207 1.13894 15.229866-1.731434 22.306029l-0.172939 0.413416c-0.11154 0.268106-0.229221 0.536212-0.345877 0.798179-0.100284 0.229221-0.172939 0.379647-0.245593 0.536212-0.128937 0.279363-0.245593 0.524956-0.36839 0.765433-0.128937 0.273223-0.245593 0.491187-0.363274 0.715291l-0.324388 0.602727c-0.530073 0.960885-1.077541 1.854231-1.62501 2.65855l-0.150426 0.217964c-0.240477 0.352017-0.48607 0.697895-0.74292 1.038656l-0.122797 0.156566c-0.273223 0.36839-0.536212 0.715291-0.815575 1.049912l-0.190335 0.229221c-0.273223 0.329505-0.552585 0.647753-0.838088 0.966001l-0.200568 0.229221c-0.273223 0.295735-0.575098 0.620124-0.893346 0.938372l-0.077771 0.066515-0.089028 0.100284c-0.715291 0.704035-1.468444 1.385557-2.240017 2.02717l-0.033769 0.022513L466.175325 549.485753z" p-id="2770" fill="#16a052"></path></svg>