<?xml version="1.0" standalone="no"?><!DOCTYPE svg PUBLIC "-//W3C//DTD SVG 1.1//EN" "http://www.w3.org/Graphics/SVG/1.1/DTD/svg11.dtd"><svg t="1567066343770" class="icon" viewBox="0 0 1024 1024" version="1.1" xmlns="http://www.w3.org/2000/svg" p-id="2532" xmlns:xlink="http://www.w3.org/1999/xlink" width="200" height="200"><defs><style type="text/css"></style></defs><path d="M759.12 432H387.36l29.12 80h342.656c13.008 0 24.88 10.96 24.88 23.968v288c0 13.008-11.872 24.032-24.88 24.032h-512C234.08 848 224 836.96 224 823.968v-288c0-13.008 10.08-23.968 23.104-23.968h101.264l-50.08-136.912c-16.736-45.968-14.448-95.904 6.4-140.608 20.848-44.688 57.632-78.528 103.584-95.248 45.952-16.72 95.888-14.464 140.576 6.4 78.352 36.512 93.84 99.68 112.256 150.288l75.2-27.36-17.024-46.72c-24.016-66.032-72.544-118.864-136.608-148.736-64.08-29.856-135.728-33.072-201.76-9.04-136.8 49.776-207.568 201.568-157.792 338.368l11.76 30.4A103.712 103.712 0 0 0 144 535.952v288C144 881.312 189.76 928 247.104 928h512.016C816.48 928 864 881.312 864 823.968v-288C864 478.624 816.48 432 759.12 432zM542.848 784v-60.16c0.4-0.272 0.752-0.608 1.152-0.896 60.48-39.904 28.528-130.976-40-130.976-68.528 0-100.48 91.088-40 130.976 0.4 0.288 0.752 0.624 1.152 0.896V784h77.696z" fill="#00AA72" p-id="2533"></path></svg>